<svg xmlns="http://www.w3.org/2000/svg" viewBox="0 0 32 32" fill="none">
  <rect width="32" height="32" rx="8" fill="url(#g)"/>
  <defs>
    <linearGradient id="g" x1="0" y1="0" x2="32" y2="32">
      <stop stop-color="#14b8a6"/>
      <stop offset="1" stop-color="#0d9488"/>
    </linearGradient>
  </defs>
  <path d="M16 7c-3.5 0-6 2.5-7 5.5C8 15 8 17 8 19c0 4.5 3.5 7 8 7s8-2.5 8-7c0-2 0-4-1-6.5C22 9.5 19.5 7 16 7z" fill="#f0fdfa"/>
  <circle cx="12" cy="17" r="1.5" fill="#0f766e"/>
  <circle cx="20" cy="17" r="1.5" fill="#0f766e"/>
  <path d="M13 21c1 1.2 2 1.8 3 1.8s2-.6 3-1.8" stroke="#0f766e" stroke-width="1.2" stroke-linecap="round"/>
</svg>
